<?xml version="1.0" encoding="utf-8"?>
<svg viewBox="103.9 462.51 188.42 84.84" width="188.42" height="84.84" xmlns="http://www.w3.org/2000/svg">
  <g style="" transform="matrix(0.91067, 0, 0, 0.91067, 17.69617, 45.10158)">
    <path d="M 147.18 468.93 C 158.48 471.19 174.4 462.86 187.87 462.86 C 190.32 462.86 200.99 461.77 201.84 463.46 C 208.26 476.3 186.65 480.78 186.65 487.76 C 186.65 490.36 184.99 497.48 190.91 497.48 C 215.6 497.48 234.55 504.16 257.71 504.16 C 262.25 504.16 276.26 506.26 278.97 503.55 C 281.87 500.65 270.62 492.01 274.72 492.01 C 275.41 492.01 287.86 500.07 288.69 501.73 C 292.45 509.25 280.26 514.17 277.75 517.52 C 269.7 528.26 272.07 530.95 257.71 535.74 C 245.46 539.82 225.22 531.94 213.98 537.56 C 195.28 546.91 181.19 541.81 160.54 541.81 C 150.86 541.81 135.55 550.58 126.53 546.06 C 118.93 542.26 121.02 526.74 123.49 520.55 C 123.81 519.76 126.53 512.05 126.53 512.05 C 126.53 512.05 117.58 530.43 111.34 524.2 C 86.26 499.11 130.93 466.5 152.04 466.5" style="stroke: rgb(0, 0, 0); fill: rgb(230, 190, 255);"/>
    <path d="M 285.04 490.79 C 280.18 471.33 303.12 489.58 285.65 489.58" style="stroke: rgb(0, 0, 0); fill: rgb(230, 190, 255);"/>
  </g>
</svg>