<?xml version="1.0" encoding="utf-8"?>
<svg viewBox="172.4 221.46 116.58 107.18" width="116.58" height="107.18" xmlns="http://www.w3.org/2000/svg">
  <path d="M 228.67 325.85 C 205.89 325.85 194.68 292.4 184.92 272.88 C 182.75 268.54 173.78 246.6 175.71 244.67 C 179.11 241.27 193.42 245.97 195.86 243.52 C 197.37 242.01 195.71 235.54 198.16 234.31 C 199.33 233.73 205.75 238.99 209.68 238.34 C 214.17 237.59 226.28 223.86 230.4 227.98 C 231.37 228.94 230.13 233.26 231.55 233.73 C 238.04 235.9 247.69 230.56 252.85 227.98 C 253.69 227.56 258.61 223.12 258.61 224.52 C 258.61 238.32 249.96 229.14 244.22 234.89 C 243.65 235.45 241.96 238.96 242.49 239.49 C 245.16 242.16 256.21 230.35 258.04 229.13 C 259.63 228.06 262.64 223.76 262.64 225.68 C 262.64 231.86 263.5 234.6 258.61 239.49 C 256.54 241.56 249.06 246.17 251.13 244.1 C 252.9 242.32 271.27 229.12 271.85 230.28 C 277.82 242.21 253.46 243.89 247.67 245.82 C 246.17 246.32 238.71 255.04 240.76 255.04 C 250.25 255.04 262.8 251.46 272.43 249.85 C 273.37 249.7 280.94 247.18 281.64 249.28 C 283.99 256.32 269.55 254.04 269.55 258.49 C 269.55 261.18 277.61 255.8 277.61 258.49 C 277.61 260.83 281.51 268.98 278.76 271.73 C 274.51 275.98 266.05 276.51 260.91 280.37 C 258.3 282.32 249.02 284.97 252.28 284.97 C 260.74 284.97 283.43 282.94 285.67 291.88 C 288.53 303.34 268.19 295.73 263.22 298.21 C 257.68 300.98 256.47 307.26 252.28 311.45 C 248.71 315.03 240.8 314.3 237.31 317.79 C 235.15 319.95 227.52 323.19 227.52 325.85" style="stroke: rgb(0, 0, 0); fill: rgb(247, 124, 154);"/>
</svg>