<?xml version="1.0" encoding="utf-8"?>
<svg viewBox="59.66 237.01 170.12 166.33" width="170.12" height="166.33" xmlns="http://www.w3.org/2000/svg">
  <g style="" transform="matrix(0.95546, 0, 0, 0.97, 6.44667, 9.60432)">
    <path d="M 175.72 246.65 C 173.74 240.69 147.89 232.57 140.5 239.96 C 135.41 245.05 129.43 250.43 124.71 255.15 C 122.81 257.04 131.45 263.59 131.39 263.65 C 129.25 265.79 113.6 275.02 116.2 277.62 C 123.69 285.1 136.76 268.51 140.5 268.51 C 142.56 268.51 141.13 274.64 141.71 275.8 C 145.26 282.89 146 285.47 139.28 292.2 C 137.04 294.44 130.78 293.28 130.78 296.45 C 130.78 296.51 130.02 305.1 129.56 305.56 C 129.42 305.7 106.33 302.52 102.23 302.52 C 100.4 302.52 90.7 303 90.7 304.95 C 90.7 319.35 93.05 316.64 85.23 332.28 C 83.18 336.39 85.93 343.02 84.01 346.86 C 82.31 350.27 53.29 361.07 60.94 368.72 C 67.01 374.79 68.81 362.35 71.87 360.82 C 75.55 358.98 77.58 365.93 79.16 367.51 C 83.64 371.99 74.09 391 72.48 394.23 C 71.78 395.61 71.05 403.34 71.87 403.34 C 90.49 403.34 92.5 402.14 105.27 389.37 C 109.38 385.26 129.66 390.35 136.25 388.15 C 140.57 386.71 154.71 372.73 158.11 369.33 C 159.75 367.69 158.1 363.26 159.32 362.04 C 169.31 352.05 185.7 373.58 193.34 373.58 C 197.97 373.58 200.71 374.01 203.05 369.33 C 204.67 366.1 202.05 360.62 204.87 357.79 C 211.28 351.38 229.78 343.13 229.78 332.28 C 229.78 326.6 209.13 328.22 209.13 321.96 C 209.13 314.68 196.06 299.78 190.91 294.63 C 186.89 290.61 189.46 284.45 187.26 280.05 C 183.07 271.68 176.33 269.23 176.33 258.19 C 176.33 256.96 173.29 242.39 173.29 242.39" style="stroke: rgb(0, 0, 0); fill: rgb(255, 255, 165);"/>
    <path style="stroke: rgb(0, 0, 0); fill: rgb(255, 255, 165);" d="M 76.73 343.21 C 76.73 341.67 80.41 332.27 76.73 333.49 C 71.22 335.33 70.65 337.23 70.65 343.82 C 70.65 344.69 69.12 349.29 69.44 349.29 C 73.6 349.29 78.55 346.26 78.55 340.18"/>
  </g>
</svg>