<?xml version="1.0" encoding="utf-8"?>
<svg viewBox="56.93 358.57 164.11 192.35" width="164.11" height="192.35" xmlns="http://www.w3.org/2000/svg">
  <g style="" transform="matrix(0.90233, 0, 0, 0.90233, 13.57423, 44.41665)">
    <path d="M 67.62 403.95 C 85.13 403.95 101.15 388.11 119.24 382.08 C 126.6 379.63 139.45 385.94 145.96 382.69 C 155.37 377.99 156.67 363.06 164.79 359 C 170.35 356.22 197.02 367.55 201.23 371.76 C 209.71 380.23 210.67 392.73 219.45 401.52 C 224.74 406.81 215.31 419.51 213.38 423.38 C 197.52 455.1 172.29 442.1 145.36 455.57 C 140.84 457.83 143.37 466.96 141.1 468.32 C 126.75 476.93 112.12 484.21 106.49 501.12 C 105.53 504 103.46 518.44 106.49 519.95 C 108.68 521.04 115.23 526.39 112.56 529.06 C 111.22 530.39 90.91 537.16 87.66 533.92 C 83.9 530.15 72.46 520.58 78.55 511.44 C 79.32 510.29 86.34 502.23 83.41 499.3 C 83.05 498.94 71.77 508.93 70.05 509.62 C 69.62 509.79 63.97 511.1 63.97 510.84 C 63.97 501.41 56.59 482.83 63.37 473.79 C 66.56 469.53 74.24 473.85 76.12 471.97 C 78.95 469.13 78.72 462.77 83.41 460.43 C 89.42 457.42 94.48 463.36 96.16 454.96 C 100.08 435.35 71.87 435.53 71.87 422.17 C 71.87 419.99 68.22 402.73 68.22 402.73" style="stroke: rgb(0, 0, 0); fill: rgb(170, 255, 195);"/>
    <path d="M 68.83 447.67 C 61.62 440.46 77.4 447.67 68.22 447.67" style="stroke: rgb(0, 0, 0); fill: rgb(170, 255, 195);"/>
    <path d="M 73.69 439.78 C 68.4 431.84 76.73 434.78 76.73 436.74 C 76.73 440.67 71.26 439.78 71.26 439.78" style="stroke: rgb(0, 0, 0); fill: rgb(170, 255, 195);"/>
    <path d="M 77.94 448.28 C 70.71 448.28 77.34 441 79.16 442.82 C 83.46 447.12 79.74 450.1 75.51 450.1" style="stroke: rgb(0, 0, 0); fill: rgb(170, 255, 195);"/>
    <path d="M 61.54 550.92 C 59.88 545.92 62.15 544.42 62.15 539.99 C 62.15 535.89 54.23 530.28 57.9 528.45 C 64.66 525.07 76.89 544.08 71.26 549.71 C 69.64 551.33 60.13 550.31 57.29 550.31" style="stroke: rgb(0, 0, 0); fill: rgb(170, 255, 195);"/>
  </g>
</svg>