<?xml version="1.0" encoding="utf-8"?>
<svg viewBox="143.53 310.42 145.2 171.87" width="145.2" height="171.87" xmlns="http://www.w3.org/2000/svg">
  <g style="" transform="matrix(0.91715, 0, 0, 0.91715, 17.90438, 32.83797)">
    <path d="M 193.94 374.19 C 193.94 356.82 215.62 347.04 226.13 336.53 C 227.82 334.85 227.01 330.57 230.99 329.24 C 238.71 326.67 242.38 331.44 249.21 328.03 C 253.14 326.06 278.36 310.42 278.36 310.42 C 278.36 310.42 280.65 328.64 275.33 328.64 C 270.59 328.64 247.67 337.77 244.96 341.39 C 243.76 342.99 237.06 346.85 237.06 348.07 C 237.06 348.52 233.93 357.79 234.63 357.79 C 236.66 357.79 239.49 352.12 239.49 354.14 C 239.49 355.83 240.69 357.5 238.89 358.4 C 232.49 361.59 233.78 366.54 229.78 370.54 C 226.77 373.55 221.27 373.58 218.24 376.62 C 217.14 377.72 212.47 384.21 213.98 385.73 C 221.52 393.27 242.26 376.34 242.53 376.62 C 243.81 377.89 242.81 381.92 244.35 382.69 C 248 384.51 252.96 379.19 254.68 376.62 C 255.89 374.8 266.22 364.53 266.22 363.25 C 266.22 359.59 261.72 350.68 265 352.32 C 281.83 360.74 257.89 384.26 261.36 391.19 C 264.5 397.48 283.71 389.85 272.29 406.98 C 271.32 408.44 267.72 413.66 265.61 413.66 C 264.18 413.66 261.36 411.62 261.36 413.06 C 261.36 426.18 258.3 426.73 248 431.88 C 246.33 432.72 242.19 437.62 244.35 439.78 C 246.34 441.77 250.53 439.22 252.85 440.39 C 268.79 448.36 250.19 449.13 261.96 437.35 C 264.47 434.84 267.64 441.96 271.07 442.82 C 271.24 442.86 294.3 440.85 287.47 447.67 C 282.1 453.04 275.4 456.1 269.86 461.64 C 267.65 463.85 270.12 471.7 266.22 475.61 C 261.96 479.86 247.62 472.38 242.53 471.36 C 236.96 470.25 223.52 464.68 221.88 464.68 C 208.57 464.68 200.17 468.7 188.48 462.86 C 180.81 459.03 161.55 464.78 155.68 467.72 C 153.48 468.81 143.53 471.55 143.53 467.11 C 143.53 440.12 170.91 453.73 185.44 446.46 C 195.49 441.43 204.39 429.15 210.95 420.95 C 223.73 404.98 219.26 392.61 204.27 385.12 C 204 384.99 193.34 372.36 193.34 372.36" style="stroke: rgb(0, 0, 0); fill: rgb(132, 154, 232);"/>
    <path d="M 278.36 428.24 C 272.4 423.77 274.54 402.56 280.18 408.2 C 281.48 409.49 286.96 423.81 286.86 423.99 C 285.68 426.35 275.93 427.63 275.93 427.63" style="stroke: rgb(0, 0, 0); fill: rgb(132, 154, 232);"/>
    <path d="M 272.9 476.83 C 273.63 473.88 274.98 471.19 275.93 468.32 C 281.98 450.19 285.4 463.36 281.4 471.36 C 281 472.16 274.72 475 274.72 475" style="stroke: rgb(0, 0, 0); fill: rgb(132, 154, 232);"/>
    <path d="M 245.57 482.29 C 241.49 482.29 242.01 478.56 244.35 476.22 C 245.79 474.78 252.19 481.08 242.53 481.08" style="stroke: rgb(0, 0, 0); fill: rgb(132, 154, 232);"/>
  </g>
</svg>