<?xml version="1.0" encoding="utf-8"?>
<svg viewBox="0 0 400 563" xmlns="http://www.w3.org/2000/svg">
  <rect width="400" height="563" style="fill: rgb(221, 247, 249);"/>
  <g>
    <path d="M 122.88 256.36 C 122.88 246.66 115.3 251.71 109.52 247.86 C 104.06 244.22 98.29 237.39 91.3 233.89 C 72.64 224.56 64.9 258.21 51.22 230.85 C 49.95 228.31 49.21 223.7 50 220.53 C 50.51 218.52 51.79 216.12 53.04 214.46 C 64.28 199.48 62.93 222.27 74.9 216.28 C 78.8 214.33 76.44 209.42 82.19 207.78 C 90.02 205.54 98.8 205.51 105.27 202.92 C 109.34 201.29 127.12 202.34 128.35 199.88 C 128.75 199.09 133.18 194.39 132.6 193.81 C 126.52 187.72 97.6 198.67 87.05 198.67 C 82.39 198.67 73.08 203.93 73.08 199.27 C 73.08 194.48 63.19 189.03 61.54 184.09 C 61.49 183.94 59.9 168.3 59.72 168.3 C 58.45 168.3 53.09 166.42 51.83 167.69 C 51.77 167.75 49.4 172.18 49.4 171.34 C 49.4 161.18 42.91 129.94 52.43 125.18 C 58.88 121.95 60.23 133.07 64.58 133.07 C 71.94 133.07 73.51 130.21 77.33 126.39 C 79.3 124.42 72.84 121.78 74.3 120.32 C 80.61 114.01 71.26 113.29 71.26 110 C 71.26 108.36 75.97 107.87 74.9 105.74 C 71.11 98.16 64.98 81.25 71.87 77.81 C 85.69 70.89 87.39 96.5 94.95 100.28 C 108.54 107.08 105.75 76.59 108.31 76.59 C 118.37 76.59 116.46 95.66 127.74 88.13 C 131.68 85.51 140.03 80.89 141.1 76.59 C 142.79 69.84 135.38 57.42 140.5 52.3 C 147.67 45.12 161.83 42.35 172.08 38.94 C 180.87 36.01 188.58 42 195.76 43.8 C 208.48 46.97 219.21 42.34 227.35 50.48 C 229.25 52.38 240.11 68.69 241.92 68.09 C 247.78 66.14 276.65 64.91 280.79 71.13 C 289.13 83.63 280.19 97.84 272.9 105.14 C 272.23 105.8 272.89 112.42 271.68 112.42 C 268.67 112.42 267.68 94.56 259.54 102.7 C 255.7 106.54 251.56 104.84 254.68 107.57 C 260.73 112.86 256.89 118.93 244.96 116.07 C 244.95 116.11 246.01 124.57 245.57 124.57 C 241.51 124.57 238.17 118.6 235.24 121.53 C 228.46 128.32 241.95 134.35 243.14 136.72 C 244.91 140.25 240.15 142.89 240.71 144.01 C 242.85 148.29 247.79 151.29 249.21 155.55 C 249.93 157.7 247.65 164.92 249.21 166.48 C 251.81 169.08 267.28 171.04 263.79 178.02 C 261.59 182.41 246.08 177.96 243.14 176.19 C 242.9 176.05 234.63 170.88 234.63 171.34 C 234.63 179.57 223.42 202.81 213.98 205.95 C 208.61 207.74 204.75 202.76 200.62 204.13 C 198.95 204.69 196.91 209.56 194.55 208.38 C 193.55 207.88 189 180.53 182.4 187.13 C 178.14 191.39 184.9 204.06 181.19 207.78 C 177.45 211.52 171.6 216.76 167.83 220.53 C 166.34 222.02 164.79 229.03 163.58 231.46 C 163.4 231.82 163.7 237.54 163.58 237.54 C 157.41 237.54 150.24 234.79 143.53 238.14 C 134.13 242.85 125.25 255.76 121.06 255.76" style="stroke: rgb(0, 0, 0); fill: rgb(185, 185, 185);"/>
    <path d="M 110.13 68.09 C 110.88 65.85 116.2 66.81 116.2 64.45 C 116.2 62.23 119.53 53.2 117.42 51.08 C 114.42 48.09 102.76 59.14 101.02 62.62 C 98.73 67.21 108.92 66.27 108.92 66.27" style="stroke: rgb(0, 0, 0); fill: rgb(185, 185, 185);"/>
    <path d="M 260.75 52.91 C 260.56 52.91 245.72 29.29 248.6 24.97 C 250.76 21.73 258.93 34.33 258.93 30.43 C 258.93 29.39 259.72 11.18 261.96 13.43 C 264.18 15.65 271.68 38.02 271.68 41.37 C 271.68 42.94 272.95 52.85 271.68 54.12 C 269.26 56.54 257.11 57.38 257.11 52.3" style="stroke: rgb(0, 0, 0); fill: rgb(185, 185, 185);"/>
    <path d="M 278.97 32.26 C 275.79 37.03 270.94 11.68 277.15 8.57 C 277.67 8.31 285.06 26.15 282.61 31.04 C 282.01 32.24 278.36 32.26 278.36 32.26" style="stroke: rgb(0, 0, 0); fill: rgb(185, 185, 185);"/>
    <path d="M 249.21 9.18 C 244.93 10.6 243.54 22.81 249.82 20.72 C 256.36 18.54 253.69 11.61 248.6 11.61" style="stroke: rgb(0, 0, 0); fill: rgb(185, 185, 185);"/>
  </g>
  <g transform="matrix(1, 0, 0, 1, 1, 0)">
    <path d="M 74.9 297.05 C 74.12 296.9 61.54 294.62 60.94 294.02 C 58.35 291.43 59.15 273.4 63.37 277.62 C 66.49 280.74 65.97 287.51 68.83 290.37 C 70.52 292.06 76.73 288.39 76.73 289.16 C 76.73 291.99 79.56 297.66 76.73 297.66 C 76.4 297.66 69.44 296.45 69.44 296.45" style="stroke: rgb(0, 0, 0); fill: rgb(201, 163, 119);"/>
    <path d="M 68.83 306.77 C 62.43 306.77 70.23 300.27 71.87 301.91 C 75.09 305.14 70.69 306.77 67.62 306.77" style="stroke: rgb(0, 0, 0); fill: rgb(201, 163, 119);"/>
    <path d="M 83.41 300.7 C 72.31 300.7 84.02 290.99 85.23 292.2 C 89.28 296.25 83.41 298.88 83.41 298.88" style="stroke: rgb(0, 0, 0); fill: rgb(201, 163, 119);"/>
    <path d="M 90.7 292.8 C 91.34 290.24 90.33 277.38 91.91 275.8 C 95.04 272.67 101.24 291.59 98.59 291.59 C 96.28 291.59 91.36 290.37 91.3 290.37" style="stroke: rgb(0, 0, 0); fill: rgb(201, 163, 119);"/>
    <path d="M 83.41 272.76 C 80.66 272.07 76.71 270.35 74.3 272.76 C 74.09 272.97 73.31 278.83 73.69 278.83 C 83.21 278.83 81.59 273.98 81.59 273.98" style="stroke: rgb(0, 0, 0); fill: rgb(201, 163, 119);"/>
  </g>
  <g>
    <path d="M 175.72 246.65 C 173.74 240.69 147.89 232.57 140.5 239.96 C 135.41 245.05 129.43 250.43 124.71 255.15 C 122.81 257.04 131.45 263.59 131.39 263.65 C 129.25 265.79 113.6 275.02 116.2 277.62 C 123.69 285.1 136.76 268.51 140.5 268.51 C 142.56 268.51 141.13 274.64 141.71 275.8 C 145.26 282.89 146 285.47 139.28 292.2 C 137.04 294.44 130.78 293.28 130.78 296.45 C 130.78 296.51 130.02 305.1 129.56 305.56 C 129.42 305.7 106.33 302.52 102.23 302.52 C 100.4 302.52 90.7 303 90.7 304.95 C 90.7 319.35 93.05 316.64 85.23 332.28 C 83.18 336.39 85.93 343.02 84.01 346.86 C 82.31 350.27 53.29 361.07 60.94 368.72 C 67.01 374.79 68.81 362.35 71.87 360.82 C 75.55 358.98 77.58 365.93 79.16 367.51 C 83.64 371.99 74.09 391 72.48 394.23 C 71.78 395.61 71.05 403.34 71.87 403.34 C 90.49 403.34 92.5 402.14 105.27 389.37 C 109.38 385.26 129.66 390.35 136.25 388.15 C 140.57 386.71 154.71 372.73 158.11 369.33 C 159.75 367.69 158.1 363.26 159.32 362.04 C 169.31 352.05 185.7 373.58 193.34 373.58 C 197.97 373.58 200.71 374.01 203.05 369.33 C 204.67 366.1 202.05 360.62 204.87 357.79 C 211.28 351.38 229.78 343.13 229.78 332.28 C 229.78 326.6 209.13 328.22 209.13 321.96 C 209.13 314.68 196.06 299.78 190.91 294.63 C 186.89 290.61 189.46 284.45 187.26 280.05 C 183.07 271.68 176.33 269.23 176.33 258.19 C 176.33 256.96 173.29 242.39 173.29 242.39" style="stroke: rgb(0, 0, 0); fill: rgb(255, 255, 165);"/>
    <path style="stroke: rgb(0, 0, 0); fill: rgb(255, 255, 165);" d="M 76.73 343.21 C 76.73 341.67 80.41 332.27 76.73 333.49 C 71.22 335.33 70.65 337.23 70.65 343.82 C 70.65 344.69 69.12 349.29 69.44 349.29 C 73.6 349.29 78.55 346.26 78.55 340.18"/>
  </g>
  <path d="M 228.56051577777538 328.63594675702194 C 204.52573067768355 328.6359558105469 192.70108399923038 293.35666763717757 182.4030303955078 272.7610778808594 C 180.11264450651962 268.1804211889765 170.65054162105514 245.03676001468705 172.68565368652344 243.00164794921875 C 176.2764538860288 239.41084774971338 191.3633929509084 244.36599242506816 193.94239807128906 241.7869873046875 C 195.54037495146648 240.1890104245101 193.77964282960434 233.3656727714322 196.37173461914062 232.06961059570312 C 197.60244138766433 231.45424948135667 204.38083431444548 237.01058243863434 208.51844787597656 236.3209686279297 C 213.26037316943683 235.53063450825664 226.0392609434155 221.04566963482176 230.3825225830078 225.38893127441406 C 231.40165886706538 226.40806755847163 230.0918619167179 230.96050561915737 231.59719848632812 231.4622802734375 C 238.43625964686743 233.7419482352135 248.61751162480854 228.11454569743512 254.068603515625 225.38893127441406 C 254.95304701215673 224.9466984156073 260.1419677734375 220.26311157647638 260.1419677734375 221.7449188232422 C 260.1419677734375 236.2970902052108 251.01716197273248 226.61836659172064 244.9585723876953 232.6769561767578 C 244.36006857901745 233.27545998543567 242.5755206431716 236.97458375352315 243.13656616210938 237.53562927246094 C 245.95443627465167 240.35349938500323 257.60452034976913 227.8903151011447 259.5346374511719 226.6035919189453 C 261.2190892265091 225.48064287764203 264.393310546875 220.9351308186839 264.393310546875 222.95957946777344 C 264.393310546875 229.48503492546118 265.29829101238107 232.37924125884223 260.1419677734375 237.53562927246094 C 257.9568838955387 239.72074059978289 250.06147223830726 244.5793877801835 252.24659729003906 242.39431762695312 C 254.121221368275 240.5197406462746 273.5004532353726 226.59786110518124 274.1106872558594 227.81826782226562 C 280.40513351028727 240.40652778702986 254.71047839274416 242.18037638520957 248.6025848388672 244.21632385253906 C 247.02208624243445 244.74315230593976 239.14911344756956 253.93368530273438 241.31455993652344 253.93368530273438 C 251.3211780829728 253.93368530273438 264.5644153229326 250.1599194962487 274.718017578125 248.46766662597656 C 275.7110527898752 248.30216214341655 283.6973234298231 245.64619674179116 284.43536376953125 247.86033630371094 C 286.91254408470365 255.29193948681205 271.68133544921875 252.8780842385918 271.68133544921875 257.57769775390625 C 271.68133544921875 260.41192626953125 280.18402099609375 254.74346923828125 280.18402099609375 257.57769775390625 C 280.18402099609375 260.04738725455366 284.3024704564361 268.642804840934 281.3987121582031 271.5464172363281 C 276.9126482440311 276.03225574280674 267.9913854556887 276.5913437887306 262.5712890625 280.65643310546875 C 259.818040398065 282.7213782503896 250.01970717485193 285.51513671875 253.46127319335938 285.51513671875 C 262.39137568962195 285.51513671875 286.32884433231425 283.37194613365745 288.6867370605469 292.80316162109375 C 291.7089165881141 304.8914241721936 270.24653450941094 296.8609093810367 265.0006408691406 299.4838562011719 C 259.1584747291749 302.4049392711548 257.8833374890397 309.0304558378312 253.46127319335938 313.45257568359375 C 249.6926676757052 317.22122854256463 241.34752830400913 316.45616654562576 237.67054748535156 320.13323974609375 C 235.39231348901694 322.4115309816122 227.34584045410156 325.8303145530512 227.34584045410156 328.6359558105469" style="stroke: rgb(0, 0, 0); fill: rgb(247, 124, 154);"/>
  <g>
    <path d="M 193.94 374.19 C 193.94 356.82 215.62 347.04 226.13 336.53 C 227.82 334.85 227.01 330.57 230.99 329.24 C 238.71 326.67 242.38 331.44 249.21 328.03 C 253.14 326.06 278.36 310.42 278.36 310.42 C 278.36 310.42 280.65 328.64 275.33 328.64 C 270.59 328.64 247.67 337.77 244.96 341.39 C 243.76 342.99 237.06 346.85 237.06 348.07 C 237.06 348.52 233.93 357.79 234.63 357.79 C 236.66 357.79 239.49 352.12 239.49 354.14 C 239.49 355.83 240.69 357.5 238.89 358.4 C 232.49 361.59 233.78 366.54 229.78 370.54 C 226.77 373.55 221.27 373.58 218.24 376.62 C 217.14 377.72 212.47 384.21 213.98 385.73 C 221.52 393.27 242.26 376.34 242.53 376.62 C 243.81 377.89 242.81 381.92 244.35 382.69 C 248 384.51 252.96 379.19 254.68 376.62 C 255.89 374.8 266.22 364.53 266.22 363.25 C 266.22 359.59 261.72 350.68 265 352.32 C 281.83 360.74 257.89 384.26 261.36 391.19 C 264.5 397.48 283.71 389.85 272.29 406.98 C 271.32 408.44 267.72 413.66 265.61 413.66 C 264.18 413.66 261.36 411.62 261.36 413.06 C 261.36 426.18 258.3 426.73 248 431.88 C 246.33 432.72 242.19 437.62 244.35 439.78 C 246.34 441.77 250.53 439.22 252.85 440.39 C 268.79 448.36 250.19 449.13 261.96 437.35 C 264.47 434.84 267.64 441.96 271.07 442.82 C 271.24 442.86 294.3 440.85 287.47 447.67 C 282.1 453.04 275.4 456.1 269.86 461.64 C 267.65 463.85 270.12 471.7 266.22 475.61 C 261.96 479.86 247.62 472.38 242.53 471.36 C 236.96 470.25 223.52 464.68 221.88 464.68 C 208.57 464.68 200.17 468.7 188.48 462.86 C 180.81 459.03 161.55 464.78 155.68 467.72 C 153.48 468.81 143.53 471.55 143.53 467.11 C 143.53 440.12 170.91 453.73 185.44 446.46 C 195.49 441.43 204.39 429.15 210.95 420.95 C 223.73 404.98 219.26 392.61 204.27 385.12 C 204 384.99 193.34 372.36 193.34 372.36" style="stroke: rgb(0, 0, 0); fill: rgb(132, 154, 232);"/>
    <path d="M 278.36 428.24 C 272.4 423.77 274.54 402.56 280.18 408.2 C 281.48 409.49 286.96 423.81 286.86 423.99 C 285.68 426.35 275.93 427.63 275.93 427.63" style="stroke: rgb(0, 0, 0); fill: rgb(132, 154, 232);"/>
    <path d="M 272.9 476.83 C 273.63 473.88 274.98 471.19 275.93 468.32 C 281.98 450.19 285.4 463.36 281.4 471.36 C 281 472.16 274.72 475 274.72 475" style="stroke: rgb(0, 0, 0); fill: rgb(132, 154, 232);"/>
    <path d="M 245.57 482.29 C 241.49 482.29 242.01 478.56 244.35 476.22 C 245.79 474.78 252.19 481.08 242.53 481.08" style="stroke: rgb(0, 0, 0); fill: rgb(132, 154, 232);"/>
  </g>
  <path d="M 251.03192652845507 351.7146929333956 C 260.34016044827524 337.7525079652723 250.42459106445312 368.9451804677028 250.42459106445312 351.10736083984375" style="stroke: rgb(0, 0, 0); fill: rgb(159, 170, 192);"/>
  <path d="M 229.1678512034694 54.72766976900772 C 229.1678466796875 48.24788194907878 222.4663696163251 26.203720301447127 224.30917358398438 24.360898971557617 C 226.74465322247366 21.925396386863 235.70543301014516 4.782982889594177 231.59719848632812 0.674816906452179 C 229.3421785192615 -1.5801654384704729 214.10929335308506 11.731710829662214 210.94778442382812 8.57017707824707 C 196.01880112184568 -6.358923436621215 147.5378875696706 -3.2841851212765807 124.70616149902344 1.2821522951126099 C 106.74909525641391 4.873559410741294 84.40667078783127 1.8894877433776855 65.79462432861328 1.8894877433776855 C 64.59981439602176 1.8894877433776855 50.055324688163786 0.5205507342320084 49.39656448364258 2.4968230724334717 C 48.9714175409226 3.7722585598868807 47.93214318617299 16.465538024902344 49.39656448364258 16.465538024902344 C 51.016604717203805 16.465538024902344 55.74320069051222 13.094805056749438 56.07725524902344 13.428860664367676 C 60.191061981894386 17.542680316755526 59.88129216355742 24.414244162362266 67.00929260253906 26.790239334106445 C 70.32480762790671 27.895408695353602 79.71056466045302 25.52281131449552 82.19268035888672 28.004911422729492 C 85.00916507540951 30.821378448876573 96.99661808945693 51.463158311668636 106.48609161376953 41.97362518310547 C 109.6879045645794 38.77179212141581 131.71377738008547 8.897013720608923 142.31887817382812 19.502214431762695 C 148.9752872051948 26.15868617739968 126.82476844660785 30.12364820097837 133.20884704589844 36.507606506347656 C 135.93400623224173 39.23271434305928 142.03185287823618 36.22056796373595 144.14088439941406 38.329612731933594 C 145.86167597720393 40.05041511817265 147.58504728054396 48.04698181152344 148.99957275390625 48.04698181152344 C 156.47756036871598 48.04698181152344 168.42792883497492 42.580963134765625 178.75901794433594 42.580963134765625 C 183.1029158652635 42.580963134765625 202.28947789593553 39.995989369541974 204.8744354248047 42.580963134765625 C 207.06924174425026 44.775783239990304 226.87126487848323 52.2983283996582 229.1678466796875 52.2983283996582" style="stroke: rgb(0, 0, 0); fill: rgb(248, 248, 248);"/>
  <g>
    <path d="M 147.18 468.93 C 158.48 471.19 174.4 462.86 187.87 462.86 C 190.32 462.86 200.99 461.77 201.84 463.46 C 208.26 476.3 186.65 480.78 186.65 487.76 C 186.65 490.36 184.99 497.48 190.91 497.48 C 215.6 497.48 234.55 504.16 257.71 504.16 C 262.25 504.16 276.26 506.26 278.97 503.55 C 281.87 500.65 270.62 492.01 274.72 492.01 C 275.41 492.01 287.86 500.07 288.69 501.73 C 292.45 509.25 280.26 514.17 277.75 517.52 C 269.7 528.26 272.07 530.95 257.71 535.74 C 245.46 539.82 225.22 531.94 213.98 537.56 C 195.28 546.91 181.19 541.81 160.54 541.81 C 150.86 541.81 135.55 550.58 126.53 546.06 C 118.93 542.26 121.02 526.74 123.49 520.55 C 123.81 519.76 126.53 512.05 126.53 512.05 C 126.53 512.05 117.58 530.43 111.34 524.2 C 86.26 499.11 130.93 466.5 152.04 466.5" style="stroke: rgb(0, 0, 0); fill: rgb(230, 190, 255);"/>
    <path d="M 285.04 490.79 C 280.18 471.33 303.12 489.58 285.65 489.58" style="stroke: rgb(0, 0, 0); fill: rgb(230, 190, 255);"/>
  </g>
  <g>
    <path d="M 67.62 403.95 C 85.13 403.95 101.15 388.11 119.24 382.08 C 126.6 379.63 139.45 385.94 145.96 382.69 C 155.37 377.99 156.67 363.06 164.79 359 C 170.35 356.22 197.02 367.55 201.23 371.76 C 209.71 380.23 210.67 392.73 219.45 401.52 C 224.74 406.81 215.31 419.51 213.38 423.38 C 197.52 455.1 172.29 442.1 145.36 455.57 C 140.84 457.83 143.37 466.96 141.1 468.32 C 126.75 476.93 112.12 484.21 106.49 501.12 C 105.53 504 103.46 518.44 106.49 519.95 C 108.68 521.04 115.23 526.39 112.56 529.06 C 111.22 530.39 90.91 537.16 87.66 533.92 C 83.9 530.15 72.46 520.58 78.55 511.44 C 79.32 510.29 86.34 502.23 83.41 499.3 C 83.05 498.94 71.77 508.93 70.05 509.62 C 69.62 509.79 63.97 511.1 63.97 510.84 C 63.97 501.41 56.59 482.83 63.37 473.79 C 66.56 469.53 74.24 473.85 76.12 471.97 C 78.95 469.13 78.72 462.77 83.41 460.43 C 89.42 457.42 94.48 463.36 96.16 454.96 C 100.08 435.35 71.87 435.53 71.87 422.17 C 71.87 419.99 68.22 402.73 68.22 402.73" style="stroke: rgb(0, 0, 0); fill: rgb(170, 255, 195);"/>
    <path d="M 68.83 447.67 C 61.62 440.46 77.4 447.67 68.22 447.67" style="stroke: rgb(0, 0, 0); fill: rgb(170, 255, 195);"/>
    <path d="M 73.69 439.78 C 68.4 431.84 76.73 434.78 76.73 436.74 C 76.73 440.67 71.26 439.78 71.26 439.78" style="stroke: rgb(0, 0, 0); fill: rgb(170, 255, 195);"/>
    <path d="M 77.94 448.28 C 70.71 448.28 77.34 441 79.16 442.82 C 83.46 447.12 79.74 450.1 75.51 450.1" style="stroke: rgb(0, 0, 0); fill: rgb(170, 255, 195);"/>
    <path d="M 61.54 550.92 C 59.88 545.92 62.15 544.42 62.15 539.99 C 62.15 535.89 54.23 530.28 57.9 528.45 C 64.66 525.07 76.89 544.08 71.26 549.71 C 69.64 551.33 60.13 550.31 57.29 550.31" style="stroke: rgb(0, 0, 0); fill: rgb(170, 255, 195);"/>
  </g>
</svg>